<?xml version="1.0" standalone="no"?>
<!DOCTYPE svg PUBLIC "-//W3C//DTD SVG 20010904//EN"
 "http://www.w3.org/TR/2001/REC-SVG-20010904/DTD/svg10.dtd">
<svg version="1.0" xmlns="http://www.w3.org/2000/svg"
 width="500.000000pt" height="500.000000pt" viewBox="0 0 500.000000 500.000000"
 preserveAspectRatio="xMidYMid meet">

<g transform="translate(0.000000,500.000000) scale(0.100000,-0.100000)"
fill="#000000" stroke="none">
<path d="M2410 3951 c-5 -11 -10 -50 -10 -88 0 -37 -7 -95 -15 -128 -27 -112
-13 -145 61 -145 72 0 80 34 38 164 -37 117 -16 145 32 42 16 -35 24 -69 24
-107 0 -70 22 -102 68 -102 66 0 73 35 49 257 -9 85 -16 111 -30 120 -24 15
-37 -6 -37 -66 0 -27 -4 -48 -8 -48 -5 0 -23 18 -41 41 -33 41 -85 79 -108 79
-7 0 -17 -9 -23 -19z"/>
<path d="M2145 3918 c-35 -30 -48 -99 -35 -181 23 -147 93 -205 195 -162 82
34 63 155 -24 155 -20 0 -42 4 -49 9 -23 14 -9 44 24 53 18 4 34 15 38 23 8
22 -23 47 -56 43 -40 -4 -38 15 2 23 40 8 47 16 34 37 -7 11 -27 18 -56 20
-36 2 -51 -2 -73 -20z"/>
<path d="M2851 3901 c-10 -10 -38 -52 -62 -92 -23 -41 -57 -96 -76 -123 -18
-27 -33 -61 -33 -77 0 -24 5 -30 38 -38 84 -24 98 -13 104 84 3 48 8 61 22 63
30 6 36 -11 21 -62 -8 -27 -15 -64 -15 -82 0 -30 4 -34 38 -43 89 -25 101 -3
78 149 -8 58 -18 129 -20 159 -3 29 -11 59 -17 67 -16 20 -56 17 -78 -5z m47
-87 c-2 -31 -7 -39 -23 -39 -27 0 -32 38 -10 72 22 33 37 18 33 -33z"/>
<path d="M1878 3850 c-44 -24 -58 -46 -58 -93 0 -42 27 -69 94 -94 64 -23 74
-46 17 -37 -50 8 -71 -7 -71 -48 0 -36 40 -75 86 -84 104 -19 196 58 165 138
-16 42 -51 67 -124 90 -108 32 -121 64 -37 85 28 7 35 14 35 34 0 20 -5 24
-35 26 -20 2 -51 -6 -72 -17z"/>
<path d="M3152 3833 c-7 -3 -28 -38 -47 -80 -19 -41 -55 -101 -80 -135 -61
-82 -61 -112 0 -139 77 -34 96 -14 115 118 5 40 21 102 35 138 13 36 22 72 19
79 -7 17 -24 25 -42 19z"/>
<path d="M2340 3379 c-25 -5 -72 -17 -105 -28 -33 -11 -87 -25 -120 -31 -172
-33 -275 -129 -275 -256 0 -91 30 -134 104 -146 23 -4 25 -8 69 -138 19 -58
51 -142 70 -187 l36 -83 -24 -6 c-18 -4 -33 1 -56 20 -35 30 -49 32 -92 12
-38 -17 -168 -29 -284 -27 -81 2 -82 1 -122 -35 -42 -37 -69 -99 -58 -128 11
-28 65 -20 99 14 16 17 34 30 39 30 5 0 9 -24 9 -53 0 -81 43 -123 84 -82 21
21 48 8 40 -19 -30 -91 -22 -126 26 -126 23 0 36 9 60 42 16 22 30 47 30 54 0
8 22 36 50 64 40 41 56 50 84 50 26 0 40 7 55 28 37 49 41 52 77 52 33 0 36
-3 64 -66 17 -36 44 -109 62 -160 l32 -95 -52 -45 c-36 -32 -57 -59 -69 -94
-14 -40 -24 -51 -54 -63 -31 -12 -39 -21 -44 -50 -5 -26 -14 -38 -35 -47 -16
-7 -36 -20 -46 -31 -13 -15 -31 -19 -76 -19 -105 0 -164 -45 -188 -143 -7 -26
-16 -50 -21 -53 -18 -11 -8 -53 17 -73 59 -47 278 -59 376 -20 70 27 144 75
168 109 17 23 18 38 13 111 -5 71 -3 87 11 98 23 20 20 58 -9 87 -14 14 -25
31 -25 38 0 20 57 68 84 71 14 2 29 6 34 9 16 10 32 -45 47 -154 10 -77 18
-107 31 -117 22 -16 26 -16 49 1 15 11 20 30 23 83 4 69 4 69 31 65 23 -3 30
2 44 30 8 18 19 45 22 61 4 15 11 27 15 27 13 0 96 -68 112 -92 14 -22 14 -26
-3 -47 -23 -29 -24 -49 -3 -80 14 -19 16 -38 11 -102 l-6 -80 36 -40 c41 -45
112 -85 188 -105 99 -27 278 -10 343 32 22 15 30 60 14 80 -5 5 -14 27 -20 49
-29 100 -99 152 -193 143 -38 -4 -52 -1 -65 13 -9 10 -31 25 -50 34 -20 9 -34
23 -34 34 0 30 -39 71 -68 71 -22 1 -34 12 -62 56 -19 31 -50 67 -68 80 -35
28 -34 44 3 44 13 0 30 7 38 15 12 12 22 12 46 4 17 -6 69 -9 116 -7 96 5 126
20 159 79 16 29 18 46 11 112 -10 114 -47 152 -195 203 -45 15 -65 27 -64 38
1 8 33 105 70 216 l69 200 36 0 c56 0 92 44 97 119 2 32 -1 75 -7 94 -34 102
-204 190 -486 253 -66 15 -255 17 -325 3z m350 -29 c90 -22 159 -57 185 -92
17 -25 21 -8 5 22 -10 18 -9 18 47 -1 136 -46 213 -128 213 -226 0 -56 -19
-107 -44 -116 -22 -9 -77 10 -115 37 -30 22 -31 25 -14 35 15 8 10 10 -27 11
-50 0 -177 58 -172 78 3 16 -9 15 -54 -5 -31 -14 -68 -17 -184 -17 -134 0
-150 2 -214 27 -51 20 -67 23 -62 12 11 -29 -146 -91 -190 -75 -24 10 -34 -2
-13 -15 15 -10 -18 -45 -58 -61 -18 -8 -48 -14 -67 -14 -29 0 -38 5 -51 30
-17 33 -22 102 -10 141 24 80 139 162 257 183 l38 7 -21 -36 c-27 -45 -12 -45
24 1 16 19 41 40 55 46 125 51 326 62 472 28z m-410 -264 c0 -2 -7 -7 -16 -10
-8 -3 -12 -2 -9 4 6 10 25 14 25 6z m105 -26 c27 -6 97 -10 155 -9 58 1 123 2
145 2 51 0 182 -50 224 -86 19 -15 46 -34 62 -43 50 -26 37 -40 -34 -36 -57 4
-66 1 -95 -23 -27 -23 -32 -33 -32 -72 0 -56 23 -105 65 -141 l32 -27 -26 -80
-26 -80 -37 9 c-67 17 -116 -35 -125 -132 -5 -50 -2 -63 14 -79 19 -19 18 -19
-53 -19 -67 1 -75 -1 -103 -28 -77 -74 -57 -186 41 -227 32 -13 32 -22 3 -93
-14 -33 -19 -37 -48 -34 l-32 3 -3 -72 c-2 -48 -8 -75 -18 -84 -27 -22 -43 10
-53 106 -9 86 -49 218 -73 240 -11 10 -6 -22 8 -59 8 -21 -25 -34 -37 -15 -5
8 -12 25 -15 39 -19 86 -76 246 -135 379 l-68 154 47 42 c46 42 47 44 47 101
-1 98 -47 140 -153 138 -51 0 -52 0 -62 35 -13 48 -13 48 15 55 13 3 46 26 73
49 35 31 63 46 103 55 30 7 68 21 84 31 17 11 37 18 45 16 8 -3 37 -9 65 -15z
m375 10 c8 -5 11 -10 5 -10 -5 0 -17 5 -25 10 -8 5 -10 10 -5 10 6 0 17 -5 25
-10z m-675 -70 c-3 -5 -20 -19 -38 -30 -32 -22 -32 -22 3 9 37 32 45 37 35 21z
m881 -35 c20 -14 33 -25 29 -25 -9 0 -75 40 -75 46 0 8 10 4 46 -21z m-938
-447 c18 -18 15 -25 -18 -32 -41 -8 -57 -48 -34 -83 13 -21 21 -24 50 -18 42
7 48 -16 10 -40 -27 -18 -70 -12 -98 13 -10 8 -18 10 -18 5 0 -6 7 -16 15 -23
19 -16 5 -43 -34 -66 -18 -10 -36 -34 -45 -58 -19 -51 -62 -98 -84 -94 -18 4
-18 9 -7 123 8 75 -15 117 -78 145 -58 27 -74 25 -118 -15 -43 -38 -57 -43
-65 -20 -10 25 4 62 38 101 l31 35 81 -2 c45 -1 107 3 140 10 80 17 106 10
107 -32 l1 -32 9 32 c15 53 85 83 117 51z m115 -62 l16 -34 -40 -6 c-21 -3
-56 -9 -77 -12 -74 -10 -81 48 -8 66 22 6 46 13 51 15 27 10 43 2 58 -29z
m705 -21 c43 -36 45 -59 11 -97 l-29 -33 -1 30 c-1 30 -1 30 -8 4 -21 -66 -52
-90 -91 -69 -39 21 -15 155 33 178 35 17 53 14 85 -13z m130 -7 c61 -23 135
-76 140 -101 3 -15 1 -15 -25 -2 -15 8 -46 15 -68 15 -58 0 -113 31 -136 76
-10 21 -19 40 -19 41 0 6 52 -9 108 -29z m-1284 -61 c13 -10 17 -24 14 -57 -3
-40 -6 -45 -28 -45 -23 0 -25 4 -28 58 -3 61 6 70 42 44z m1265 -38 c23 -14
31 -25 28 -37 -52 -158 -60 -176 -81 -180 -94 -19 -117 127 -34 215 26 28 44
29 87 2z m-1209 -36 c0 -7 -4 -13 -10 -13 -5 0 -10 12 -10 28 0 21 2 24 10 12
5 -8 10 -21 10 -27z m1348 2 c41 -34 49 -82 23 -139 -10 -24 -28 -49 -39 -55
-19 -10 -19 -9 3 32 32 57 40 107 22 131 -8 11 -34 27 -58 37 -43 18 -44 18
-12 18 20 1 43 -8 61 -24z m-28 -20 c42 -22 46 -48 15 -111 -36 -73 -94 -104
-129 -69 -13 14 -13 21 1 68 21 73 51 127 69 127 8 0 28 -7 44 -15z m-259 -37
c-5 -20 -6 -49 -3 -65 5 -26 4 -27 -12 -10 -24 24 -56 40 -56 28 0 -5 9 -13
21 -16 11 -4 28 -22 37 -41 23 -50 8 -69 -51 -68 -113 1 -117 115 -6 139 17 4
33 14 36 23 7 19 35 54 39 49 2 -1 -1 -19 -5 -39z m34 -129 c4 -6 25 -9 47 -8
30 3 42 -1 50 -15 10 -18 8 -18 -30 -12 -54 8 -92 23 -92 36 0 13 17 13 25 -1z
m-545 -81 c0 -13 4 -29 9 -37 7 -11 -1 -25 -28 -51 -25 -25 -42 -52 -50 -84
-10 -40 -15 -47 -34 -44 -50 7 -22 134 45 199 46 45 58 48 58 17z m424 -7 c55
-38 104 -94 127 -145 23 -50 24 -72 4 -80 -24 -9 -38 1 -68 48 -27 44 -87 104
-122 123 -15 9 -16 15 -5 47 6 20 14 36 16 36 3 0 25 -13 48 -29z m-562 -218
c6 -7 24 -13 40 -13 23 0 32 6 42 30 12 30 13 30 30 11 26 -28 14 -69 -22 -77
-55 -12 -59 -14 -39 -26 10 -5 25 -7 33 -4 11 4 14 -4 14 -38 0 -40 -4 -48
-52 -91 -88 -79 -116 -90 -243 -90 -84 0 -122 4 -160 19 -27 10 -53 22 -57 25
-16 14 16 87 52 123 36 36 41 38 103 38 76 0 111 -11 150 -48 22 -21 27 -22
27 -9 0 10 -18 30 -40 45 -21 15 -39 30 -40 35 0 4 16 15 35 24 34 16 37 16
65 -1 35 -20 37 -15 9 23 -25 34 -19 68 14 80 19 7 23 5 25 -18 2 -14 8 -32
14 -38z m772 31 c22 -21 20 -46 -5 -78 -23 -29 -15 -34 19 -11 17 13 26 14 44
4 50 -26 50 -30 8 -66 -54 -47 -51 -60 5 -21 40 29 52 32 119 32 61 1 80 -3
103 -20 33 -24 58 -66 67 -109 6 -28 3 -33 -28 -48 -54 -25 -161 -40 -233 -33
-79 8 -147 41 -208 99 -39 38 -45 49 -45 85 0 40 1 42 30 42 17 0 30 5 30 10
0 6 -11 10 -25 10 -27 0 -65 31 -65 54 0 7 6 19 14 25 12 10 17 8 26 -8 25
-48 100 -33 100 19 0 34 19 40 44 14z m-681 -273 c-28 -37 -88 -76 -155 -102
-51 -19 -72 -21 -180 -17 -145 5 -211 29 -195 72 4 10 21 8 78 -11 64 -22 87
-25 179 -21 92 3 111 7 156 32 29 15 69 46 90 68 31 31 40 36 42 22 2 -9 -5
-28 -15 -43z m677 -75 c65 -30 241 -29 320 2 67 27 70 27 70 2 0 -56 -209 -90
-344 -55 -97 25 -206 103 -206 147 0 14 12 8 57 -28 32 -26 78 -57 103 -68z"/>
<path d="M2510 2995 c0 -8 -7 -15 -15 -15 -9 0 -18 -7 -21 -15 -8 -21 -20 -19
-43 6 l-20 21 6 -21 c9 -35 39 -45 63 -21 11 11 25 20 30 20 6 0 10 9 10 20 0
11 -2 20 -5 20 -3 0 -5 -7 -5 -15z"/>
<path d="M2807 2963 c-10 -16 9 -53 27 -53 8 0 17 7 20 16 9 24 7 29 -6 16
-18 -18 -26 -15 -30 11 -2 15 -6 18 -11 10z"/>
<path d="M2187 2943 c-4 -3 -7 -15 -7 -25 0 -23 -16 -23 -29 0 -9 15 -10 15
-11 1 0 -9 6 -22 14 -28 17 -15 46 10 46 40 0 20 -3 23 -13 12z"/>
<path d="M2642 2898 c-7 -7 -12 -16 -12 -21 0 -5 7 -1 16 7 19 20 34 20 62 0
26 -18 29 -12 6 10 -18 19 -55 21 -72 4z"/>
<path d="M2279 2883 c-11 -15 -11 -16 1 -5 20 17 50 15 74 -5 21 -18 21 -18 2
5 -23 26 -58 29 -77 5z"/>
<path d="M2657 2797 c-51 -39 -33 -157 24 -157 18 0 49 35 49 56 0 6 -10 16
-22 22 -18 8 -19 11 -6 11 24 1 31 17 18 41 -16 29 -44 42 -63 27z"/>
<path d="M2292 2780 c-17 -28 -15 -91 4 -118 22 -32 65 -26 78 10 8 23 6 31
-10 43 -17 13 -17 14 -1 15 20 0 22 27 3 53 -18 23 -58 22 -74 -3z"/>
<path d="M2487 2723 c-15 -14 -6 -23 13 -13 43 23 92 -20 70 -60 -12 -22 -49
-26 -82 -9 -16 8 -19 8 -16 -2 7 -22 54 -32 85 -17 34 16 43 61 17 89 -17 18
-73 26 -87 12z"/>
<path d="M2312 2554 c-31 -21 -29 -74 3 -112 37 -44 119 -82 177 -82 113 0
222 75 216 148 -4 45 -25 50 -111 28 -58 -15 -127 -11 -187 12 -54 20 -76 21
-98 6z m67 -13 c16 -9 17 -16 8 -65 -6 -31 -14 -56 -19 -56 -16 0 -57 48 -64
76 -11 42 32 67 75 45z m310 -10 c19 -12 8 -51 -25 -90 -39 -47 -54 -41 -54
22 0 46 3 56 23 65 28 13 38 14 56 3z m-216 -17 c29 -7 31 -13 21 -88 -6 -40
-10 -46 -30 -46 -26 0 -74 20 -74 30 0 4 5 32 11 64 9 44 15 55 28 52 9 -3 28
-8 44 -12z m121 -26 c8 -32 7 -98 -1 -98 -5 0 -25 -4 -45 -9 l-38 -9 0 69 0
69 39 0 c32 0 40 -4 45 -22z"/>
<path d="M2440 2288 c0 -14 98 -14 112 0 4 4 -20 7 -52 7 -33 0 -60 -3 -60 -7z"/>
<path d="M2350 2192 c0 -32 16 -52 42 -52 14 0 18 8 17 38 -1 36 -2 36 -8 7
-8 -37 -23 -35 -34 5 -10 38 -17 39 -17 2z"/>
<path d="M2451 1969 c-1 -14 5 -34 13 -44 12 -16 16 -17 30 -6 9 7 16 25 15
40 -1 25 -1 25 -7 3 -10 -33 -22 -32 -37 3 -13 30 -13 30 -14 4z"/>
<path d="M1638 1203 c8 -3 12 -27 12 -68 0 -41 -4 -65 -12 -68 -7 -3 7 -6 32
-6 35 0 41 2 28 10 -26 14 -23 49 3 49 52 0 80 39 49 70 -15 15 -33 20 -72 19
-29 0 -47 -3 -40 -6z m86 -26 c8 -12 7 -21 -6 -33 -20 -20 -38 -11 -38 20 0
39 23 46 44 13z"/>
<path d="M1888 1198 c16 -16 16 -110 0 -126 -9 -9 -3 -12 28 -11 21 0 33 3 27
6 -9 3 -13 27 -13 68 0 41 4 65 13 68 6 3 -6 6 -27 6 -31 1 -37 -2 -28 -11z"/>
<path d="M2060 1193 c0 -13 3 -14 12 -5 13 13 68 17 68 4 0 -5 -18 -33 -40
-62 -22 -29 -40 -57 -40 -62 0 -4 29 -8 65 -8 56 0 65 3 64 18 0 10 -3 12 -6
5 -5 -13 -73 -18 -73 -6 0 4 18 33 40 64 22 32 40 60 40 63 0 3 -29 6 -65 6
-55 0 -65 -3 -65 -17z"/>
<path d="M2301 1188 c1 -17 2 -19 6 -5 3 12 15 17 39 17 19 0 34 -3 34 -6 0
-3 -18 -31 -40 -61 -22 -31 -40 -60 -40 -65 0 -4 29 -8 65 -8 55 0 65 3 65 18
0 13 -2 14 -9 4 -5 -8 -22 -12 -45 -10 l-36 3 39 55 c22 30 41 61 41 68 0 8
-18 12 -60 12 -56 0 -60 -2 -59 -22z"/>
<path d="M2574 1153 c-13 -32 -29 -66 -34 -75 -8 -15 -6 -18 12 -17 13 0 18 3
11 5 -25 10 -1 34 34 34 30 0 35 -3 30 -20 -4 -17 0 -20 30 -20 30 0 32 2 20
14 -8 8 -24 42 -37 75 -12 34 -27 61 -32 61 -5 0 -20 -26 -34 -57z m36 -25 c0
-11 -8 -18 -20 -18 -23 0 -23 0 -9 37 8 22 12 24 19 13 6 -8 10 -23 10 -32z"/>
<path d="M2798 1198 c16 -16 16 -110 0 -126 -9 -9 -3 -12 27 -11 22 0 34 3 28
6 -15 5 -18 63 -4 63 5 0 19 -16 31 -35 13 -20 30 -35 41 -35 18 0 18 2 -5 39
-21 32 -22 40 -11 45 21 8 18 43 -4 56 -11 5 -41 10 -67 10 -37 0 -45 -3 -36
-12z m80 -15 c13 -24 4 -43 -19 -43 -14 0 -19 7 -19 30 0 34 23 41 38 13z"/>
<path d="M3058 1198 c16 -16 16 -110 0 -126 -9 -9 -3 -12 27 -11 22 0 34 3 28
6 -9 3 -13 27 -13 68 0 41 4 65 13 68 6 3 -6 6 -27 6 -31 1 -37 -2 -28 -11z"/>
<path d="M3264 1143 c-16 -38 -33 -71 -39 -75 -5 -4 0 -8 12 -8 16 0 20 5 16
20 -5 17 0 20 31 20 33 0 41 -7 37 -32 0 -5 12 -8 28 -8 l28 0 -22 44 c-12 25
-27 58 -33 75 -6 17 -15 31 -20 31 -6 0 -22 -30 -38 -67z m41 -10 c5 -19 2
-23 -14 -23 -23 0 -24 3 -15 38 7 26 18 20 29 -15z"/>
</g>
</svg>
